<?xml version="1.0" encoding="utf-8"?>
<!-- Svg Vector Icons : http://www.onlinewebfonts.com/icon -->
<!DOCTYPE svg PUBLIC "-//W3C//DTD SVG 1.1//EN" "http://www.w3.org/Graphics/SVG/1.1/DTD/svg11.dtd">
<svg xmlns="http://www.w3.org/2000/svg" xmlns:xlink="http://www.w3.org/1999/xlink" version="1.1" x="0px" y="0px" viewBox="0 0 1000 1000" enable-background="new 0 0 1000 1000" xml:space="preserve" fill="#0074d9">
<metadata> Svg Vector Icons : http://www.onlinewebfonts.com/icon </metadata>
<g><g transform="translate(0.000000,511.000000) scale(0.100000,-0.100000)"><path d="M4789.2,4833.7c-215.1-227.1-403.4-367.5-696.2-513.9c-636.4-319.7-1425.2-504.9-2333.5-546.8c-268.9-12-337.6-23.9-382.5-71.7c-89.6-89.6-280.8-1141.4-397.4-2217C914,886.8,887.1-353.1,931.9-822.2c62.7-684.2,239-1290.7,484-1670.2c328.7-510.9,1081.6-1090.5,2151.2-1652.3c433.2-227.1,1359.5-645.4,1431.2-645.4c26.9,0,253.9,92.6,507.9,203.2c1613.4,717.1,2689,1458,3104.3,2142.3C8828.7-2089,8990-1518.4,9058.8-870c47.8,421.3,38.8,1377.4-12,2004.8c-95.6,1093.5-322.7,2464.9-433.2,2572.5c-47.8,47.8-119.5,59.8-484,80.7c-857.5,44.8-1499.9,197.2-2130.3,504.9c-316.7,155.4-660.3,415.3-749.9,564.7c-53.8,89.6-152.4,152.4-245,152.4C4977.4,5010,4881.8,4932.3,4789.2,4833.7z M5231.4,4221.2c633.4-504.9,1490.9-788.8,2662.2-881.4c203.2-17.9,373.5-35.9,379.4-41.8c20.9-17.9,161.4-875.4,218.1-1320.6c104.6-794.8,131.4-1180.2,131.4-1897.3c0-1045.7-95.6-1649.3-343.6-2151.2c-101.6-209.1-173.3-301.8-394.4-522.9c-528.8-522.9-1470-1099.5-2566.5-1577.6L4995.4-4312l-439.2,194.2c-815.7,364.5-1649.3,851.5-2163.2,1266.8c-717.1,576.6-929.2,1081.6-1012.9,2396.2c-50.8,836.6,38.9,2034.7,242,3220.9c50.8,286.8,95.6,525.9,101.6,531.8c6,6,191.2,26.9,409.3,41.8c755.9,56.8,1493.9,233,2040.7,487c259.9,119.5,597.6,337.6,720.1,466.1c47.8,50.8,98.6,89.6,110.6,89.6C5019.3,4382.6,5120.9,4310.9,5231.4,4221.2z"/></g></g>
</svg>
