<?xml version="1.0" encoding="utf-8"?>
<!-- Svg Vector Icons : http://www.onlinewebfonts.com/icon -->
<!DOCTYPE svg PUBLIC "-//W3C//DTD SVG 1.1//EN" "http://www.w3.org/Graphics/SVG/1.1/DTD/svg11.dtd">
<svg xmlns="http://www.w3.org/2000/svg" xmlns:xlink="http://www.w3.org/1999/xlink" version="1.1" x="0px" y="0px" viewBox="0 0 1000 1000" enable-background="new 0 0 1000 1000" xml:space="preserve" fill="#ff1b1b">
<metadata> Svg Vector Icons : http://www.onlinewebfonts.com/icon </metadata>
<g><g><path d="M703.7,538.3c0,12-9.8,21.9-21.8,21.9H548.1c-10.9,0-20.1-8-21.5-18.9l-23.7-169.8l-47.8,436.8c-1.1,10.3-9.5,18.5-20,19.3c-0.6,0-1.1,0.1-1.8,0.1c-9.8,0-18.4-6.4-20.9-15.9l-71.2-253.2l-70.1,133.2c-4.2,8-13,12.9-21.9,11.5c-9-1.1-16.4-7.6-18.6-16.4l-34.1-136.4H31.9c-12,0-21.9-9.8-21.9-21.8c0-12.1,9.8-21.9,21.9-21.9h181.6c10,0,18.8,6.8,21.2,16.6l24.4,97.4l69-130.9c4.1-8,12.7-12.8,21.6-11.6c8.9,0.9,16.3,7.2,18.8,15.8l55.5,197.5l54.7-499.8c1.2-10.9,10.3-19.2,21.4-19.4c12.3,1,20.4,8,21.9,18.9l45.1,325.2h114.8C693.9,516.4,703.7,526.2,703.7,538.3z M819.3,516.4h-69.1c-12,0-21.9,9.8-21.9,21.9c0,12,9.8,21.9,21.9,21.9h69.1c12,0,21.9-9.8,21.9-21.9C841.2,526.2,831.3,516.4,819.3,516.4z M968.1,516.4h-73.6c-12,0-21.9,9.8-21.9,21.9c0,12,9.9,21.9,21.9,21.9h73.6c12,0,21.9-9.8,21.9-21.9C990,526.2,980.1,516.4,968.1,516.4z"/></g><g/><g/><g/><g/><g/><g/><g/><g/><g/><g/><g/><g/><g/><g/><g/></g>
</svg>
