<?xml version="1.0" encoding="utf-8"?>
<!-- Svg Vector Icons : http://www.onlinewebfonts.com/icon -->
<!DOCTYPE svg PUBLIC "-//W3C//DTD SVG 1.1//EN" "http://www.w3.org/Graphics/SVG/1.1/DTD/svg11.dtd">
<svg xmlns="http://www.w3.org/2000/svg" xmlns:xlink="http://www.w3.org/1999/xlink" version="1.1" x="0px" y="0px" viewBox="0 0 1000 1000" enable-background="new 0 0 1000 1000" xml:space="preserve" fill="#2ecc40">
<metadata> Svg Vector Icons : http://www.onlinewebfonts.com/icon </metadata>
<g><g transform="translate(0.000000,503.000000) scale(0.100000,-0.100000)"><path d="M4290.8,4830.6c-1049.6-80.4-1944.1-312.2-2700.6-701c-362-187.7-595.7-352.4-842.7-601.4c-335.2-333.3-494.2-645.5-513.3-1007.5C209.2,2041.9,431.4,1656.9,801,1542c136-42.1,8124.9-42.1,8262.8,0c325.6,99.6,499.9,356.3,521,766.1c17.2,300.7-53.6,574.6-214.5,846.6c-128.3,218.3-465.4,553.5-741.2,735.5c-233.7,157.1-724,402.2-1009.4,507.6c-522.9,191.5-1153,333.3-1811.9,406.1C5493.6,4838.3,4599.2,4853.6,4290.8,4830.6z M5823.1,4399.7c1308.2-139.8,2376.9-536.3,2928.6-1084.1c319.8-319.9,434.8-588,421.4-978.7c-7.7-159-13.4-191.5-61.3-260.5c-28.7-44.1-86.2-97.7-128.3-118.8c-74.7-38.3-99.6-38.3-4052.9-38.3c-3964.8,0-3980.1,0-4060.5,38.3c-214.5,105.3-296.9,478.8-180,819.8c95.8,275.8,365.8,584.2,722.1,823.6c676.1,455.9,1788.9,762.3,3012.8,835.1C4681.5,4451.4,5554.9,4428.4,5823.1,4399.7z"/><path d="M2254.8,1107.2c-151.3-44.1-283.5-118.8-431-241.3C1659.1,726.1,1557.6,678.2,1391,659c-245.2-30.6-544,23-900.2,160.9c-203,78.5-270.1,76.6-344.8-13.4C63.6,708.8,96.2,555.6,209.2,502c291.1-137.9,651.2-229.8,951.9-243.3c392.6-19.2,624.4,49.8,877.2,260.5c206.9,170.5,275.8,199.2,490.3,208.8c289.2,11.5,526.7-59.4,1130-340.9c446.3-206.9,480.8-218.3,716.3-204.9c231.8,11.5,296.9,32.6,735.5,241.3c323.7,155.1,555.4,231.8,697.2,231.8c149.4,0,340.9-61.3,576.5-182c270.1-137.9,423.3-189.6,693.4-229.8c499.9-74.7,1030.4,3.8,1296.7,191.5c206.9,145.6,273.9,170.5,446.3,170.5c262.4,0,501.8-82.4,699.1-239.4c86.2-69,120.7-84.3,185.8-84.3c141.7,0,233.7,143.7,178.1,277.7c-47.9,114.9-329.4,283.5-612.9,363.9c-91.9,26.8-226,46-367.8,51.7c-339,17.2-532.5-32.6-704.8-176.2c-176.2-147.5-350.5-191.5-747-189.6c-373.5,3.8-515.2,36.4-833.2,201.1c-394.6,203-649.3,264.3-940.4,227.9c-262.4-32.6-379.2-72.8-810.2-275.8c-509.5-241.3-532.5-243.3-990.2-30.6c-379.2,176.2-601.4,264.3-842.8,337.1C2825.6,1130.2,2409.9,1151.3,2254.8,1107.2z"/><path d="M1159.2-340.8C937-350.3,898.7-358,799.1-405.9c-168.6-82.4-325.6-237.5-409.9-409.9c-70.9-143.7-72.8-149.4-72.8-367.7c0-212.6,1.9-226,65.1-354.3c88.1-178.1,247.1-335.2,417.5-417.6l130.2-61.3h3974.3H8878l130.2,61.3c170.5,82.4,329.4,239.4,417.5,417.6c63.2,128.3,65.1,141.7,65.1,354.3c0,206.8-3.8,227.9-61.3,348.6c-101.5,214.5-285.4,385-499.9,459.7c-105.3,36.4-176.2,38.3-3815.4,40.2C3076.5-333.1,1297.1-335,1159.2-340.8z M8862.7-764.1c143.7-53.6,233.7-208.8,235.6-400.3c0-226-67-354.3-220.3-423.3c-72.8-34.5-233.7-36.4-3974.3-36.4c-3740.7,0-3901.5,1.9-3974.3,36.4c-95.8,42.1-174.3,132.1-201.1,227.9c-24.9,91.9-24.9,262.4,1.9,354.3c23,88.1,120.7,201.1,199.2,235.6c46,21.1,779.6,24.9,3968.6,26.8C7615.8-743,8824.4-748.8,8862.7-764.1z"/><path d="M948.5-2595.1c-268.1-36.4-496.1-195.4-614.8-431c-272-534.3,1.9-1017,748.9-1315.8c827.4-329.4,2053.2-461.6,4089.3-436.7c946.2,11.5,1243.1,26.8,1838.7,90c1783.2,195.4,2645.1,678,2566.6,1440.3c-30.6,295-214.5,505.7-536.3,614.8l-124.5,42.2l-3955.2,1.9C2785.3-2587.5,981.1-2591.3,948.5-2595.1z M8993-3041.4c132.2-67,182-145.6,182-295c-1.9-509.5-729.7-825.5-2231.4-969.2c-1013.2-95.8-3112.4-99.6-4137.1-7.7c-1248.8,111.1-1953.6,350.5-2127.9,725.9c-59.4,126.4-57.5,226,3.8,350.5c59.4,118.8,147.5,193.5,272,226c70.9,19.2,911.7,23,4016.5,21.1l3926.4-3.8L8993-3041.4z"/></g></g>
</svg>
