<?xml version="1.0" encoding="utf-8"?>
<!-- Svg Vector Icons : http://www.onlinewebfonts.com/icon -->
<!DOCTYPE svg PUBLIC "-//W3C//DTD SVG 1.1//EN" "http://www.w3.org/Graphics/SVG/1.1/DTD/svg11.dtd">
<svg xmlns="http://www.w3.org/2000/svg" xmlns:xlink="http://www.w3.org/1999/xlink" version="1.1" x="0px" y="0px" viewBox="0 0 1000 1000" enable-background="new 0 0 1000 1000" xml:space="preserve" fill="#716565">
<metadata> Svg Vector Icons : http://www.onlinewebfonts.com/icon </metadata>
<g><g transform="translate(0.000000,511.000000) scale(0.100000,-0.100000)"><path d="M8914.5,4619.4c14.1-245.3,14.1-257.4-22.1-245.3c-116.6,34.2-639.4,170.9-643.4,166.9c-4-2,168.9-104.6,384.1-225.2c213.1-122.7,378-227.2,363.9-233.3c-12.1-8-60.3-20.1-106.6-28.2c-48.2-8-90.5-20.1-96.5-28.1c-4-8,40.2-36.2,100.5-60.3l108.6-44.2l-66.4-154.8c-36.2-84.5-86.5-217.2-112.6-295.6c-58.3-183-122.7-277.5-259.4-374c-154.8-110.6-347.9-166.9-530.8-154.8c-243.3,16.1-406.2,114.6-557,339.8c-100.5,144.8-221.2,249.3-337.8,287.5c-118.6,42.2-329.8,40.2-468.5,0c-203.1-60.3-474.6-221.2-635.4-376l-84.4-80.4l78.4-58.3l78.4-58.3l108.6,88.5c253.4,207.1,498.7,315.7,705.8,315.7c154.8,0,257.4-56.3,353.9-191c140.8-195,263.4-309.6,414.2-386.1c259.4-126.7,591.2-112.6,876.7,38.2c249.3,132.7,345.8,253.3,468.5,593.2c46.2,130.7,106.6,281.5,130.7,337.8c56.3,120.6,58.3,114.6,110.6-201.1c20.1-120.6,42.2-227.2,48.3-235.3c8-8,40.2,80.4,70.4,195c32.2,116.6,64.3,211.1,72.4,211.1c8.1,0,106.6-42.2,219.2-92.5c112.6-50.3,209.1-88.5,213.1-84.5c4,4-64.4,110.6-150.8,237.3l-160.9,229.2l152.8,289.6c84.5,158.9,148.8,291.6,144.8,295.6c-4,6-102.5-30.2-219.2-78.4c-114.6-46.3-247.3-100.5-293.6-118.6l-84.5-32.2l-174.9,215.1c-96.5,118.6-183,225.2-195,235.3C8908.5,4870.7,8906.5,4780.2,8914.5,4619.4z"/><path d="M4816.6,2654.8l-337.8-386.1l227.2-66.4c553-158.8,916.9-370,1337.2-778.2c92.5-88.5,170.9-156.8,176.9-150.8c6,6,84.5,223.2,172.9,480.6c124.7,364,156.9,478.6,142.8,510.7c-42.2,88.5-247.3,309.7-378,410.2c-249.3,189-593.2,327.8-882.7,355.9l-120.6,12.1L4816.6,2654.8z M5429.9,2797.6c261.4-56.3,546.9-211.1,735.9-400.1c183-183,179-156.8,72.4-476.6c-52.3-154.8-96.5-283.5-100.5-285.5c-2-4-88.5,62.3-193,148.8c-315.7,263.4-522.8,382-902.8,518.8c-94.5,34.2-177,68.4-181,74.4c-4,8,80.4,112.6,189,237.3c160.9,181,207.1,221.2,241.3,213.1C5315.3,2821.7,5377.6,2809.7,5429.9,2797.6z"/><path d="M3153.7,2180.3c-406.2-44.2-890.8-193-1246.7-384.1C481.4,1026.1-214.3-630.8,236.1-2179.1c164.9-561,448.4-1039.6,866.6-1457.8c941-941,2304.3-1246.7,3573.1-802.3c241.3,84.5,601.2,273.5,820.4,430.3c778.2,559,1270.8,1369.3,1409.5,2322.4c44.2,309.7,30.2,826.4-32.2,1126c-331.8,1618.7-1741.3,2770.8-3370,2750.7C3348.8,2190.3,3191.9,2184.3,3153.7,2180.3z M6021.1,720.5c108.6-132.7,229.2-307.7,317.7-458.5l52.3-90.5L6131.6,36.8c-140.7-74.4-263.4-134.7-267.4-134.7c-6,0-50.3,64.3-96.5,142.8c-46.2,80.4-134.7,201.1-193,271.5L5468.1,443l215.1,201.1c118.6,110.6,219.2,201.1,225.2,201.1C5914.5,845.2,5964.8,788.9,6021.1,720.5z M2643,105.2c102.5-46.3,197.1-160.9,253.4-303.6c60.3-150.8,64.3-557,10.1-721.9c-44.2-128.7-132.7-263.4-203.1-309.7c-229.2-150.8-498.7-38.2-617.3,261.4c-40.2,102.5-46.2,150.8-46.2,388.1c0,233.3,6,287.5,44.2,382.1c82.4,209.1,239.3,341.8,406.2,341.8C2528.4,143.4,2596.7,125.3,2643,105.2z M4788.5,115.2c36.2-14.1,102.6-68.4,148.8-120.6c279.5-317.7,213.1-1055.7-114.6-1246.7c-106.6-62.3-271.5-56.3-378,12.1c-146.8,98.5-241.3,309.7-259.4,579.1c-24.1,384.1,122.7,715.8,349.9,784.2C4621.6,149.4,4716.1,145.4,4788.5,115.2z M6622.3-457.8c138.8-551,112.6-1180.3-72.4-1705.1c-100.5-285.5-349.9-750-402.1-750c-16.1,0-295.6,195-432.3,299.6l-42.2,34.2l90.5,148.8c219.2,359.9,325.8,715.8,339.8,1146.1c12.1,323.7-16.1,540.9-102.5,816.4c-28.2,86.5-48.3,160.9-44.2,162.9c4,4,128.7,56.3,275.5,114.6l269.5,108.6l36.2-92.5C6557.9-224.6,6596.2-353.3,6622.3-457.8z M4810.6-2641.5c50.3-24.1,114.6-86.5,183-181c68.4-90.5,132.7-154.8,172.9-170.9c64.3-28.2,98.5-22.1,263.4,48.3c26.1,12.1,44.2-4,76.4-70.4c50.3-96.5,50.3-94.5-116.6-158.9c-225.2-86.5-376-26.1-546.9,219.2c-166.9,237.3-287.5,217.2-446.4-74.4c-100.5-183-179-275.5-275.5-323.8c-116.6-60.3-227.2-70.4-357.9-32.2c-106.6,30.2-134.7,52.3-349.9,271.5c-221.2,229.2-321.7,301.6-418.2,301.6c-48.3,0-128.7-94.5-197.1-229.2c-110.6-221.2-227.2-313.7-392.1-313.7c-150.8,0-267.4,104.6-376,337.8l-48.3,102.6l-112.6-92.5c-124.7-102.5-215.2-146.8-295.6-146.8c-40.2,0-50.3,8.1-40.2,32.2c6,18.1,12.1,62.3,12.1,98.5c0,52.3,10.1,68.4,46.2,78.4c26.1,6,110.6,60.3,185,120.6c76.4,60.3,158.8,114.6,185,122.7c88.5,22.1,156.8-38.2,247.3-215.2c104.6-205.1,130.7-237.3,205.1-237.3c76.4,0,138.7,64.4,225.2,237.3c116.6,233.3,245.3,325.7,418.2,297.6c142.8-24.1,243.3-92.5,478.6-333.8c249.3-253.3,299.6-281.5,440.4-241.3c96.5,26.1,134.7,68.4,239.3,259.4c96.5,168.9,229.2,313.7,311.7,331.8C4605.5-2587.2,4732.2-2605.3,4810.6-2641.5z"/></g></g>
</svg>
