<?xml version="1.0" encoding="utf-8"?>
<!-- Svg Vector Icons : http://www.onlinewebfonts.com/icon -->
<!DOCTYPE svg PUBLIC "-//W3C//DTD SVG 1.1//EN" "http://www.w3.org/Graphics/SVG/1.1/DTD/svg11.dtd">
<svg xmlns="http://www.w3.org/2000/svg" xmlns:xlink="http://www.w3.org/1999/xlink" version="1.1" x="0px" y="0px" viewBox="0 0 1000 1000" enable-background="new 0 0 1000 1000" xml:space="preserve" fill="#7fdbff">
<metadata> Svg Vector Icons : http://www.onlinewebfonts.com/icon </metadata>
<g><g transform="translate(0.000000,511.000000) scale(0.100000,-0.100000)"><path d="M2208.7,4955.4c-35.2-33-55.1-77.1-55.1-123.3c0-39.6,70.5-480.1,154.2-980c85.9-497.7,154.2-922.8,154.2-942.6c0-30.8-48.5-35.2-422.9-35.2c-495.5,0-537.4-13.2-616.7-189.4l-44.1-101.3l114.5-938.2c61.7-517.6,255.5-2123.1,429.5-3567.8c251.1-2087.8,325.9-2642.8,356.8-2697.9c22-39.6,83.7-92.5,138.7-118.9l96.9-50.7h1885.2h1885.2l96.9,48.5c55.1,28.6,116.7,81.5,136.5,118.9c39.6,70.5,41.8,85.9,691.5,5464.1l209.2,1746.5l-44,99.1c-26.4,59.5-72.7,114.5-116.7,143.1c-72.7,44-103.5,44-2224.4,44H2880.4l-11,50.6c-6.6,26.4-85.9,484.5-174,1017.5c-156.4,922.8-167.4,971.2-222.4,1019.7C2393.7,5028.1,2279.2,5025.9,2208.7,4955.4z M2776.9,1074.9C2882.6,447.2,2968.5-72.5,2968.5-81.4c0-17.6-594.6-26.4-594.6-8.8c0,4.4-59.5,499.9-132.1,1099c-72.7,601.3-132.1,1118.8-132.1,1149.6v55.1h237.8h237.9L2776.9,1074.9z M5038.7,2206.9c0-4.4-226.8-522-502.1-1149.6L4034.5-88h-328.1h-328.1L3195.4,980.2c-99.1,588-187.2,1105.6-193.8,1151.8l-15.4,81.5h1026.3C4576.3,2213.5,5038.7,2211.3,5038.7,2206.9z M6690.5,2162.9c0-66.1-264.3-2246.4-273.1-2255.2c-2.2-4.4-442.7-4.4-977.8-2.2L4468.3-88l473.5,1079.2c262.1,594.6,488.9,1112.2,504.3,1151.8l30.8,70.5h605.7h607.8V2162.9z M4996.9-612.1c297.3-158.6,295.1-599.1-2.2-759.8c-125.5-66.1-339.2-61.7-433.9,8.8c-127.7,96.9-189.4,200.4-200.4,334.7C4336.2-680.4,4688.6-449.1,4996.9-612.1z M3942-1607.6c273.1-202.6,141-627.7-196-627.7c-345.8,0-471.3,438.3-180.6,634.3c61.7,44,96.9,50.7,196,44C3838.5-1561.3,3906.7-1581.2,3942-1607.6z M5300.8-2156c125.6-66.1,149.8-242.3,48.5-345.8c-182.8-182.8-471.3,37.5-345.8,264.3C5060.8-2133.9,5188.5-2098.7,5300.8-2156z M4312-2907c149.8-160.8-77.1-403-237.9-253.3c-88.1,83.7-81.5,204.8,15.4,279.7C4149-2834.3,4254.7-2847.5,4312-2907z M4864.8-3658c132.1-118.9-19.8-359-185-297.3c-158.6,61.7-154.2,277.5,6.6,339.1C4732.6-3598.5,4822.9-3620.6,4864.8-3658z"/><path d="M6206,4805.7c-33-35.2-702.5-1508.6-704.8-1550.5c0-4.4,96.9-6.6,215.8-6.6h215.8l237.9,546.2c132.1,299.5,242.3,548.4,246.7,552.8c2.2,4.4,431.7-288.5,949.2-647.5c517.6-361.2,969-667.3,999.9-678.3c127.8-50.7,281.9,88.1,251.1,224.6c-6.6,35.2-35.2,81.5-61.7,105.7c-39.6,35.2-1764.1,1237.7-2074.6,1444.7C6373.4,4869.5,6272.1,4873.9,6206,4805.7z"/></g></g>
</svg>
